{"title":"Kung.Fu.Panda.2.2011.R6.LiNE.XViD-CHOiCE ","uid":6613097,"size":1489764986,"categoryP":"video","categoryS":"movies","magnet":"?xt=urn:btih:e73ded08486f3d6db8c44f919c602faed401568d&amp;dn=Kung.Fu.Panda.2.2011.R6.LiNE.XViD-CHOiCE+&amp;tr=udp%3A%2F%2Ftracker.openbittorrent.com%3A80&amp;tr=udp%3A%2F%2Fopen.demonii.com%3A1337&amp;tr=udp%3A%2F%2Ftracker.coppersurfer.tk%3A6969&amp;tr=udp%3A%2F%2Fexodus.desync.com%3A6969","seeders":1,"leechers":0,"uploader":"HeroMaster","files":-1,"time":1313664281,"description":"Kung Fu Panda 2 2011 R6 LiNE XViD - CHOiCE\n\n\nIMDB: http://www.imdb.com/title/tt1302011/          \n\n\nRELEASE DATE: 5/26/11                        \nSIZE: 1.36gb                                         \nLENGTH: 1H 23MN\nSOURCE: V: ZJM A: ZJM Thanks                         \nHEIGHT: 288\nSUBTITLES: NONE                                      \nWIDTH: 640\n\n\nINFO:\n\n\nVideo\nID                               : 0\nFormat                           : MPEG-4 Visual\nFormat profile                   : Advanced Simple@L5\nFormat settings, BVOP            : 2\nFormat settings, QPel            : No\nFormat settings, GMC             : No warppoints\nFormat settings, Matrix          : Default (MPEG)\nMuxing mode                      : Packed bitstream\nCodec ID                         : XVID\nCodec ID/Hint                    : XviD\nDuration                         : 1h 23mn\nBit rate                         : 2 199 Kbps\nWidth                            : 640 pixels\nHeight                           : 288 pixels\nDisplay aspect ratio             : 2.222\nFrame rate                       : 29.970 fps\nColor space                      : YUV\nChroma subsampling               : 4:2:0\nBit depth                        : 8 bits\nScan type                        : Progressive\nCompression mode                 : Lossy\nBits/(Pixel*Frame)               : 0.398\nStream size                      : 1.29 GiB (94%)\nWriting library                  : XviD 64\n\nAudio\nID                               : 1\nFormat                           : MPEG Audio\nFormat version                   : Version 1\nFormat profile                   : Layer 3\nMode                             : Joint stereo\nMode extension                   : MS Stereo\nCodec ID                         : 55\nCodec ID/Hint                    : MP3\nDuration                         : 1h 23mn\nBit rate mode                    : Constant\nBit rate                         : 128 Kbps\nChannel(s)                       : 2 channels\nSampling rate                    : 44.1 KHz\nCompression mode                 : Lossy\nStream size                      : 76.8 MiB (5%)\nAlignment                        : Split accross interleaves\nInterleave, duration             : 33 ms (1.00 video frame)\n\n\nNOTES:\n\n\nSource was very nice, but dont think it was a true dvdscr, yet it  \nwasnt a cam either End credits are half intact, but also have \nchinese subs hardcoded so we went with the r6 tag from teh subs \nand picture quality Anyhow, audio was nice possibly line but was \nhere and there so we made several cuts and fixed that. \nOverall very nice release so enjoy or wait till retail.\n\n\nScreens:\n\n &lt;a href=&quot;\nhttp://www.leetleech.org/images/81086174494273880492.png&quot; rel=&quot;nofollow&quot; target=&quot;_NEW&quot;&gt;\nhttp://www.leetleech.org/images/81086174494273880492.png&lt;/a&gt;\n &lt;a href=&quot;\nhttp://www.leetleech.org/images/03060361070276812491.png&quot; rel=&quot;nofollow&quot; target=&quot;_NEW&quot;&gt;\nhttp://www.leetleech.org/images/03060361070276812491.png&lt;/a&gt;\n &lt;a href=&quot;\nhttp://www.leetleech.org/images/91080299637290780421.png&quot; rel=&quot;nofollow&quot; target=&quot;_NEW&quot;&gt;\nhttp://www.leetleech.org/images/91080299637290780421.png&lt;/a&gt;\n\n\nENJOY!","torrent":{"xt":"urn:btih:e73ded08486f3d6db8c44f919c602faed401568d","amp;dn":"Kung.Fu.Panda.2.2011.R6.LiNE.XViD-CHOiCE+","amp;tr":["udp%3A%2F%2Ftracker.openbittorrent.com%3A80","udp%3A%2F%2Fopen.demonii.com%3A1337","udp%3A%2F%2Ftracker.coppersurfer.tk%3A6969","udp%3A%2F%2Fexodus.desync.com%3A6969"],"infoHash":"e73ded08486f3d6db8c44f919c602faed401568d","infoHashBuffer":{"type":"Buffer","data":[231,61,237,8,72,111,61,109,184,196,79,145,156,96,47,174,212,1,86,141]},"announce":[],"urlList":[]}}